{"header":{"keySignatures":[],"meta":[],"name":"","ppq":96,"tempos":[],"timeSignatures":[{"ticks":0,"timeSignature":[4,4],"measures":0}]},"tracks":[{"channel":0,"controlChanges":{"6":[{"number":6,"ticks":0,"time":0,"value":0.09448818897637795},{"number":6,"ticks":0,"time":0,"value":0.09448818897637795},{"number":6,"ticks":0,"time":0,"value":0.09448818897637795},{"number":6,"ticks":6912,"time":36,"value":0.09448818897637795},{"number":6,"ticks":6912,"time":36,"value":0.09448818897637795},{"number":6,"ticks":6912,"time":36,"value":0.09448818897637795}],"7":[{"number":7,"ticks":0,"time":0,"value":0.7874015748031497},{"number":7,"ticks":0,"time":0,"value":0.7874015748031497},{"number":7,"ticks":0,"time":0,"value":0.7874015748031497},{"number":7,"ticks":0,"time":0,"value":0.7874015748031497},{"number":7,"ticks":6912,"time":36,"value":0.7874015748031497},{"number":7,"ticks":6912,"time":36,"value":0.7874015748031497},{"number":7,"ticks":6912,"time":36,"value":0.7874015748031497}],"10":[{"number":10,"ticks":0,"time":0,"value":0.5039370078740157},{"number":10,"ticks":0,"time":0,"value":0.5039370078740157},{"number":10,"ticks":0,"time":0,"value":0.5039370078740157},{"number":10,"ticks":0,"time":0,"value":0.5039370078740157},{"number":10,"ticks":6912,"time":36,"value":0.5039370078740157},{"number":10,"ticks":6912,"time":36,"value":0.5039370078740157},{"number":10,"ticks":6912,"time":36,"value":0.5039370078740157}],"100":[{"number":100,"ticks":0,"time":0,"value":0},{"number":100,"ticks":0,"time":0,"value":0},{"number":100,"ticks":0,"time":0,"value":0},{"number":100,"ticks":6912,"time":36,"value":0},{"number":100,"ticks":6912,"time":36,"value":0},{"number":100,"ticks":6912,"time":36,"value":0}],"101":[{"number":101,"ticks":0,"time":0,"value":0},{"number":101,"ticks":0,"time":0,"value":0},{"number":101,"ticks":0,"time":0,"value":0},{"number":101,"ticks":6912,"time":36,"value":0},{"number":101,"ticks":6912,"time":36,"value":0},{"number":101,"ticks":6912,"time":36,"value":0}]},"instrument":{"family":"pipe","name":"flute","number":73},"name":"Voice","notes":[{"duration":0.5,"durationTicks":96,"midi":74,"name":"D5","ticks":192,"time":1,"velocity":0.7874015748031497},{"duration":0.5,"durationTicks":96,"midi":73,"name":"C#5","ticks":288,"time":1.5,"velocity":0.7874015748031497},{"duration":0.25,"durationTicks":48,"midi":71,"name":"B4","ticks":384,"time":2,"velocity":0.7874015748031497},{"duration":0.25,"durationTicks":48,"midi":66,"name":"F#4","ticks":432,"time":2.25,"velocity":0.7874015748031497},{"duration":0.125,"durationTicks":24,"midi":66,"name":"F#4","ticks":480,"time":2.5,"velocity":0.7874015748031497},{"duration":0.125,"durationTicks":24,"midi":66,"name":"F#4","ticks":504,"time":2.625,"velocity":0.7874015748031497},{"duration":0.125,"durationTicks":24,"midi":66,"name":"F#4","ticks":528,"time":2.75,"velocity":0.7874015748031497},{"duration":0.125,"durationTicks":24,"midi":66,"name":"F#4","ticks":552,"time":2.875,"velocity":0.7874015748031497},{"duration":0.125,"durationTicks":24,"midi":66,"name":"F#4","ticks":576,"time":3,"velocity":0.7874015748031497},{"duration":0.125,"durationTicks":24,"midi":71,"name":"B4","ticks":600,"time":3.125,"velocity":0.7874015748031497},{"duration":0.125,"durationTicks":24,"midi":71,"name":"B4","ticks":624,"time":3.25,"velocity":0.7874015748031497},{"duration":0.125,"durationTicks":24,"midi":71,"name":"B4","ticks":648,"time":3.375,"velocity":0.7874015748031497},{"duration":0.25,"durationTicks":48,"midi":71,"name":"B4","ticks":672,"time":3.5,"velocity":0.7874015748031497},{"duration":0.125,"durationTicks":24,"midi":69,"name":"A4","ticks":720,"time":3.75,"velocity":0.7874015748031497},{"duration":0.25,"durationTicks":48,"midi":71,"name":"B4","ticks":744,"time":3.875,"velocity":0.7874015748031497},{"duration":0.28125,"durationTicks":54,"midi":67,"name":"G4","ticks":792,"time":4.125,"velocity":0.7874015748031497},{"duration":0.125,"durationTicks":24,"midi":67,"name":"G4","ticks":864,"time":4.5,"velocity":0.7874015748031497},{"duration":0.125,"durationTicks":24,"midi":67,"name":"G4","ticks":888,"time":4.625,"velocity":0.7874015748031497},{"duration":0.125,"durationTicks":24,"midi":67,"name":"G4","ticks":912,"time":4.75,"velocity":0.7874015748031497},{"duration":0.125,"durationTicks":24,"midi":67,"name":"G4","ticks":936,"time":4.875,"velocity":0.7874015748031497},{"duration":0.125,"durationTicks":24,"midi":67,"name":"G4","ticks":960,"time":5,"velocity":0.7874015748031497},{"duration":0.125,"durationTicks":24,"midi":71,"name":"B4","ticks":984,"time":5.125,"velocity":0.7874015748031497},{"duration":0.125,"durationTicks":24,"midi":71,"name":"B4","ticks":1008,"time":5.25,"velocity":0.7874015748031497},{"duration":0.125,"durationTicks":24,"midi":71,"name":"B4","ticks":1032,"time":5.375,"velocity":0.7874015748031497},{"duration":0.25,"durationTicks":48,"midi":71,"name":"B4","ticks":1056,"time":5.5,"velocity":0.7874015748031497},{"duration":0.125,"durationTicks":24,"midi":73,"name":"C#5","ticks":1104,"time":5.75,"velocity":0.7874015748031497},{"duration":0.25,"durationTicks":48,"midi":74,"name":"D5","ticks":1128,"time":5.875,"velocity":0.7874015748031497},{"duration":0.25,"durationTicks":48,"midi":69,"name":"A4","ticks":1176,"time":6.125,"velocity":0.7874015748031497},{"duration":0.125,"durationTicks":24,"midi":69,"name":"A4","ticks":1248,"time":6.5,"velocity":0.7874015748031497},{"duration":0.125,"durationTicks":24,"midi":69,"name":"A4","ticks":1272,"time":6.625,"velocity":0.7874015748031497},{"duration":0.125,"durationTicks":24,"midi":69,"name":"A4","ticks":1296,"time":6.75,"velocity":0.7874015748031497},{"duration":0.125,"durationTicks":24,"midi":69,"name":"A4","ticks":1320,"time":6.875,"velocity":0.7874015748031497},{"duration":0.125,"durationTicks":24,"midi":69,"name":"A4","ticks":1344,"time":7,"velocity":0.7874015748031497},{"duration":0.125,"durationTicks":24,"midi":74,"name":"D5","ticks":1368,"time":7.125,"velocity":0.7874015748031497},{"duration":0.125,"durationTicks":24,"midi":74,"name":"D5","ticks":1392,"time":7.25,"velocity":0.7874015748031497},{"duration":0.125,"durationTicks":24,"midi":74,"name":"D5","ticks":1416,"time":7.375,"velocity":0.7874015748031497},{"duration":0.25,"durationTicks":48,"midi":74,"name":"D5","ticks":1440,"time":7.5,"velocity":0.7874015748031497},{"duration":0.125,"durationTicks":24,"midi":76,"name":"E5","ticks":1488,"time":7.75,"velocity":0.7874015748031497},{"duration":0.25,"durationTicks":48,"midi":76,"name":"E5","ticks":1512,"time":7.875,"velocity":0.7874015748031497},{"duration":0.625,"durationTicks":120,"midi":73,"name":"C#5","ticks":1560,"time":8.125,"velocity":0.7874015748031497},{"duration":0.5,"durationTicks":96,"midi":74,"name":"D5","ticks":1728,"time":9,"velocity":0.7874015748031497},{"duration":0.5,"durationTicks":96,"midi":73,"name":"C#5","ticks":1824,"time":9.5,"velocity":0.7874015748031497},{"duration":0.25,"durationTicks":48,"midi":71,"name":"B4","ticks":1920,"time":10,"velocity":0.7874015748031497},{"duration":0.25,"durationTicks":48,"midi":66,"name":"F#4","ticks":1968,"time":10.25,"velocity":0.7874015748031497},{"duration":0.125,"durationTicks":24,"midi":66,"name":"F#4","ticks":2016,"time":10.5,"velocity":0.7874015748031497},{"duration":0.125,"durationTicks":24,"midi":66,"name":"F#4","ticks":2040,"time":10.625,"velocity":0.7874015748031497},{"duration":0.125,"durationTicks":24,"midi":66,"name":"F#4","ticks":2064,"time":10.75,"velocity":0.7874015748031497},{"duration":0.125,"durationTicks":24,"midi":66,"name":"F#4","ticks":2088,"time":10.875,"velocity":0.7874015748031497},{"duration":0.125,"durationTicks":24,"midi":66,"name":"F#4","ticks":2112,"time":11,"velocity":0.7874015748031497},{"duration":0.125,"durationTicks":24,"midi":71,"name":"B4","ticks":2136,"time":11.125,"velocity":0.7874015748031497},{"duration":0.125,"durationTicks":24,"midi":71,"name":"B4","ticks":2160,"time":11.25,"velocity":0.7874015748031497},{"duration":0.125,"durationTicks":24,"midi":71,"name":"B4","ticks":2184,"time":11.375,"velocity":0.7874015748031497},{"duration":0.25,"durationTicks":48,"midi":71,"name":"B4","ticks":2208,"time":11.5,"velocity":0.7874015748031497},{"duration":0.125,"durationTicks":24,"midi":69,"name":"A4","ticks":2256,"time":11.75,"velocity":0.7874015748031497},{"duration":0.25,"durationTicks":48,"midi":71,"name":"B4","ticks":2280,"time":11.875,"velocity":0.7874015748031497},{"duration":0.28125,"durationTicks":54,"midi":67,"name":"G4","ticks":2328,"time":12.125,"velocity":0.7874015748031497},{"duration":0.125,"durationTicks":24,"midi":67,"name":"G4","ticks":2400,"time":12.5,"velocity":0.7874015748031497},{"duration":0.125,"durationTicks":24,"midi":67,"name":"G4","ticks":2424,"time":12.625,"velocity":0.7874015748031497},{"duration":0.125,"durationTicks":24,"midi":67,"name":"G4","ticks":2448,"time":12.75,"velocity":0.7874015748031497},{"duration":0.125,"durationTicks":24,"midi":67,"name":"G4","ticks":2472,"time":12.875,"velocity":0.7874015748031497},{"duration":0.125,"durationTicks":24,"midi":67,"name":"G4","ticks":2496,"time":13,"velocity":0.7874015748031497},{"duration":0.125,"durationTicks":24,"midi":71,"name":"B4","ticks":2520,"time":13.125,"velocity":0.7874015748031497},{"duration":0.125,"durationTicks":24,"midi":71,"name":"B4","ticks":2544,"time":13.25,"velocity":0.7874015748031497},{"duration":0.125,"durationTicks":24,"midi":71,"name":"B4","ticks":2568,"time":13.375,"velocity":0.7874015748031497},{"duration":0.25,"durationTicks":48,"midi":71,"name":"B4","ticks":2592,"time":13.5,"velocity":0.7874015748031497},{"duration":0.125,"durationTicks":24,"midi":73,"name":"C#5","ticks":2640,"time":13.75,"velocity":0.7874015748031497},{"duration":0.25,"durationTicks":48,"midi":74,"name":"D5","ticks":2664,"time":13.875,"velocity":0.7874015748031497},{"duration":0.25,"durationTicks":48,"midi":69,"name":"A4","ticks":2712,"time":14.125,"velocity":0.7874015748031497},{"duration":0.125,"durationTicks":24,"midi":69,"name":"A4","ticks":2784,"time":14.5,"velocity":0.7874015748031497},{"duration":0.125,"durationTicks":24,"midi":69,"name":"A4","ticks":2808,"time":14.625,"velocity":0.7874015748031497},{"duration":0.125,"durationTicks":24,"midi":69,"name":"A4","ticks":2832,"time":14.75,"velocity":0.7874015748031497},{"duration":0.125,"durationTicks":24,"midi":69,"name":"A4","ticks":2856,"time":14.875,"velocity":0.7874015748031497},{"duration":0.125,"durationTicks":24,"midi":69,"name":"A4","ticks":2880,"time":15,"velocity":0.7874015748031497},{"duration":0.125,"durationTicks":24,"midi":74,"name":"D5","ticks":2904,"time":15.125,"velocity":0.7874015748031497},{"duration":0.125,"durationTicks":24,"midi":74,"name":"D5","ticks":2928,"time":15.25,"velocity":0.7874015748031497},{"duration":0.125,"durationTicks":24,"midi":74,"name":"D5","ticks":2952,"time":15.375,"velocity":0.7874015748031497},{"duration":0.25,"durationTicks":48,"midi":74,"name":"D5","ticks":2976,"time":15.5,"velocity":0.7874015748031497},{"duration":0.125,"durationTicks":24,"midi":76,"name":"E5","ticks":3024,"time":15.75,"velocity":0.7874015748031497},{"duration":0.25,"durationTicks":48,"midi":76,"name":"E5","ticks":3048,"time":15.875,"velocity":0.7874015748031497},{"duration":0.375,"durationTicks":72,"midi":73,"name":"C#5","ticks":3096,"time":16.125,"velocity":0.7874015748031497},{"duration":0.125,"durationTicks":24,"midi":78,"name":"F#5","ticks":3456,"time":18,"velocity":0.7874015748031497},{"duration":0.125,"durationTicks":24,"midi":76,"name":"E5","ticks":3480,"time":18.125,"velocity":0.7874015748031497},{"duration":0.125,"durationTicks":24,"midi":78,"name":"F#5","ticks":3504,"time":18.25,"velocity":0.7874015748031497},{"duration":0.125,"durationTicks":24,"midi":76,"name":"E5","ticks":3528,"time":18.375,"velocity":0.7874015748031497},{"duration":0.25,"durationTicks":48,"midi":78,"name":"F#5","ticks":3552,"time":18.5,"velocity":0.7874015748031497},{"duration":0.125,"durationTicks":24,"midi":76,"name":"E5","ticks":3600,"time":18.75,"velocity":0.7874015748031497},{"duration":0.25,"durationTicks":48,"midi":78,"name":"F#5","ticks":3624,"time":18.875,"velocity":0.7874015748031497},{"duration":0.125,"durationTicks":24,"midi":76,"name":"E5","ticks":3672,"time":19.125,"velocity":0.7874015748031497},{"duration":0.125,"durationTicks":24,"midi":78,"name":"F#5","ticks":3696,"time":19.25,"velocity":0.7874015748031497},{"duration":0.125,"durationTicks":24,"midi":76,"name":"E5","ticks":3720,"time":19.375,"velocity":0.7874015748031497},{"duration":0.25,"durationTicks":48,"midi":78,"name":"F#5","ticks":3744,"time":19.5,"velocity":0.7874015748031497},{"duration":0.125,"durationTicks":24,"midi":79,"name":"G5","ticks":3792,"time":19.75,"velocity":0.7874015748031497},{"duration":0.25,"durationTicks":48,"midi":79,"name":"G5","ticks":3816,"time":19.875,"velocity":0.7874015748031497},{"duration":0.375,"durationTicks":72,"midi":74,"name":"D5","ticks":3864,"time":20.125,"velocity":0.7874015748031497},{"duration":0.25,"durationTicks":48,"midi":74,"name":"D5","ticks":4008,"time":20.875,"velocity":0.7874015748031497},{"duration":0.125,"durationTicks":24,"midi":79,"name":"G5","ticks":4056,"time":21.125,"velocity":0.7874015748031497},{"duration":0.125,"durationTicks":24,"midi":79,"name":"G5","ticks":4080,"time":21.25,"velocity":0.7874015748031497},{"duration":0.1875,"durationTicks":36,"midi":79,"name":"G5","ticks":4104,"time":21.375,"velocity":0.7874015748031497},{"duration":0.125,"durationTicks":24,"midi":79,"name":"G5","ticks":4152,"time":21.625,"velocity":0.7874015748031497},{"duration":0.125,"durationTicks":24,"midi":81,"name":"A5","ticks":4176,"time":21.75,"velocity":0.7874015748031497},{"duration":0.25,"durationTicks":48,"midi":79,"name":"G5","ticks":4200,"time":21.875,"velocity":0.7874015748031497},{"duration":0.375,"durationTicks":72,"midi":78,"name":"F#5","ticks":4248,"time":22.125,"velocity":0.7874015748031497},{"duration":0.125,"durationTicks":24,"midi":78,"name":"F#5","ticks":4440,"time":23.125,"velocity":0.7874015748031497},{"duration":0.125,"durationTicks":24,"midi":78,"name":"F#5","ticks":4464,"time":23.25,"velocity":0.7874015748031497},{"duration":0.25,"durationTicks":48,"midi":78,"name":"F#5","ticks":4488,"time":23.375,"velocity":0.7874015748031497},{"duration":0.125,"durationTicks":24,"midi":81,"name":"A5","ticks":4536,"time":23.625,"velocity":0.7874015748031497},{"duration":0.125,"durationTicks":24,"midi":79,"name":"G5","ticks":4560,"time":23.75,"velocity":0.7874015748031497},{"duration":0.25,"durationTicks":48,"midi":78,"name":"F#5","ticks":4584,"time":23.875,"velocity":0.7874015748031497},{"duration":0.375,"durationTicks":72,"midi":76,"name":"E5","ticks":4632,"time":24.125,"velocity":0.7874015748031497},{"duration":0.125,"durationTicks":24,"midi":64,"name":"E4","ticks":4704,"time":24.5,"velocity":0.7874015748031497},{"duration":0.125,"durationTicks":24,"midi":64,"name":"E4","ticks":4728,"time":24.625,"velocity":0.7874015748031497},{"duration":0.125,"durationTicks":24,"midi":64,"name":"E4","ticks":4752,"time":24.75,"velocity":0.7874015748031497},{"duration":0.125,"durationTicks":24,"midi":64,"name":"E4","ticks":4776,"time":24.875,"velocity":0.7874015748031497},{"duration":0.125,"durationTicks":24,"midi":64,"name":"E4","ticks":4800,"time":25,"velocity":0.7874015748031497},{"duration":0.125,"durationTicks":24,"midi":64,"name":"E4","ticks":4824,"time":25.125,"velocity":0.7874015748031497},{"duration":0.125,"durationTicks":24,"midi":64,"name":"E4","ticks":4848,"time":25.25,"velocity":0.7874015748031497},{"duration":0.125,"durationTicks":24,"midi":64,"name":"E4","ticks":4872,"time":25.375,"velocity":0.7874015748031497},{"duration":0.25,"durationTicks":48,"midi":61,"name":"C#4","ticks":4896,"time":25.5,"velocity":0.7874015748031497},{"duration":0.25,"durationTicks":48,"midi":62,"name":"D4","ticks":4944,"time":25.75,"velocity":0.7874015748031497},{"duration":0.125,"durationTicks":24,"midi":78,"name":"F#5","ticks":4992,"time":26,"velocity":0.7874015748031497},{"duration":0.125,"durationTicks":24,"midi":76,"name":"E5","ticks":5016,"time":26.125,"velocity":0.7874015748031497},{"duration":0.125,"durationTicks":24,"midi":78,"name":"F#5","ticks":5040,"time":26.25,"velocity":0.7874015748031497},{"duration":0.125,"durationTicks":24,"midi":76,"name":"E5","ticks":5064,"time":26.375,"velocity":0.7874015748031497},{"duration":0.125,"durationTicks":24,"midi":78,"name":"F#5","ticks":5088,"time":26.5,"velocity":0.7874015748031497},{"duration":0.125,"durationTicks":24,"midi":76,"name":"E5","ticks":5112,"time":26.625,"velocity":0.7874015748031497},{"duration":0.375,"durationTicks":72,"midi":78,"name":"F#5","ticks":5136,"time":26.75,"velocity":0.7874015748031497},{"duration":0.125,"durationTicks":24,"midi":76,"name":"E5","ticks":5208,"time":27.125,"velocity":0.7874015748031497},{"duration":0.125,"durationTicks":24,"midi":78,"name":"F#5","ticks":5232,"time":27.25,"velocity":0.7874015748031497},{"duration":0.125,"durationTicks":24,"midi":76,"name":"E5","ticks":5256,"time":27.375,"velocity":0.7874015748031497},{"duration":0.25,"durationTicks":48,"midi":78,"name":"F#5","ticks":5280,"time":27.5,"velocity":0.7874015748031497},{"duration":0.125,"durationTicks":24,"midi":79,"name":"G5","ticks":5328,"time":27.75,"velocity":0.7874015748031497},{"duration":0.25,"durationTicks":48,"midi":79,"name":"G5","ticks":5352,"time":27.875,"velocity":0.7874015748031497},{"duration":0.375,"durationTicks":72,"midi":74,"name":"D5","ticks":5400,"time":28.125,"velocity":0.7874015748031497},{"duration":0.25,"durationTicks":48,"midi":74,"name":"D5","ticks":5544,"time":28.875,"velocity":0.7874015748031497},{"duration":0.125,"durationTicks":24,"midi":79,"name":"G5","ticks":5592,"time":29.125,"velocity":0.7874015748031497},{"duration":0.125,"durationTicks":24,"midi":79,"name":"G5","ticks":5616,"time":29.25,"velocity":0.7874015748031497},{"duration":0.125,"durationTicks":24,"midi":79,"name":"G5","ticks":5640,"time":29.375,"velocity":0.7874015748031497},{"duration":0.25,"durationTicks":48,"midi":79,"name":"G5","ticks":5664,"time":29.5,"velocity":0.7874015748031497},{"duration":0.125,"durationTicks":24,"midi":81,"name":"A5","ticks":5712,"time":29.75,"velocity":0.7874015748031497},{"duration":0.25,"durationTicks":48,"midi":79,"name":"G5","ticks":5736,"time":29.875,"velocity":0.7874015748031497},{"duration":0.375,"durationTicks":72,"midi":78,"name":"F#5","ticks":5784,"time":30.125,"velocity":0.7874015748031497},{"duration":0.125,"durationTicks":24,"midi":78,"name":"F#5","ticks":5976,"time":31.125,"velocity":0.7874015748031497},{"duration":0.125,"durationTicks":24,"midi":78,"name":"F#5","ticks":6000,"time":31.25,"velocity":0.7874015748031497},{"duration":0.25,"durationTicks":48,"midi":78,"name":"F#5","ticks":6024,"time":31.375,"velocity":0.7874015748031497},{"duration":0.125,"durationTicks":24,"midi":81,"name":"A5","ticks":6072,"time":31.625,"velocity":0.7874015748031497},{"duration":0.125,"durationTicks":24,"midi":79,"name":"G5","ticks":6096,"time":31.75,"velocity":0.7874015748031497},{"duration":0.25,"durationTicks":48,"midi":78,"name":"F#5","ticks":6120,"time":31.875,"velocity":0.7874015748031497},{"duration":0.375,"durationTicks":72,"midi":76,"name":"E5","ticks":6168,"time":32.125,"velocity":0.7874015748031497}]}]}